<svg width="256" height="256" xmlns="http://www.w3.org/2000/svg">
  <g fill="none" fill-rule="evenodd">
    <g fill="#007EE5">
      <path d="M158.3873 125.1692l-30.887 20.167 21.357 17.102 31.142-19.23-21.612-18.039z"/>
      <path d="M127.5002 179.542l30.887 20.167 21.613-18.04-31.143-19.231-21.357 17.104z"/>
      <path d="M179.9998 181.6687l21.613 18.04 30.887-20.167-21.356-17.103-31.144 19.23zM232.5002 145.3361l-30.887-20.167-21.613 18.039 31.143 19.23 21.357-17.102z"/>
      <path d="M180.0637 185.5497l-21.676 17.987-9.276-6.056v6.789l30.952 18.561 30.952-18.561v-6.789l-9.276 6.056-21.676-17.987z"/>
    </g>
    <path d="M35.5047 34.1055h105.05c6.648 0 12.0298 5.3794 12.0298 12.0246v40.0822c0 6.6452-5.3817 12.0247-12.0298 12.0247h-37.6724l5.1707 12.6575L85.3124 98.237h-49.755c-6.648 0-12.0298-5.3795-12.0298-12.0247V46.1301c-.0527-6.5924 5.329-12.0246 11.9771-12.0246z" fill="#9B5C8F"/>
    <path d="M29.9646 45.0226c.7387-1.002 1.8467-1.5294 3.324-1.635 2.691-.2109 4.221 1.0549 4.5904 3.7973 1.6356 11.0226 3.4296 20.3576 5.329 28.0048l11.555-21.9924c1.0552-2.0041 2.3743-3.059 3.9572-3.1644 2.3215-.1582 3.7461 1.3185 4.3265 4.4301 1.319 7.0144 3.0074 12.974 5.0124 18.037 1.3718-13.3959 3.6934-23.0473 6.9647-29.0068.7914-1.4768 1.9522-2.2151 3.4823-2.3206 1.2135-.1055 2.3215.2637 3.324 1.0548 1.0025.791 1.5301 1.7931 1.6356 3.0062.0528.9493-.1055 1.7404-.5276 2.5315-2.0577 3.7972-3.7461 10.1787-5.118 19.039-1.319 8.5966-1.7939 15.2945-1.4773 20.0938.1055 1.3185-.1055 2.4788-.6331 3.4809-.6332 1.1602-1.5829 1.7931-2.7964 1.8986-1.3719.1055-2.7964-.5274-4.1683-1.9514-4.9069-5.0102-8.8113-12.4993-11.6605-22.4671-3.4295 6.7507-5.9621 11.8137-7.5978 15.189-3.113 5.9596-5.751 9.0185-7.967 9.1768-1.4247.1054-2.6382-1.1076-3.6935-3.639-2.6908-6.909-5.5928-20.2521-8.7058-40.0295-.1582-1.3713.1056-2.5843.8442-3.5336zM143.4039 53.3027c-1.8995-3.3226-4.6959-5.3267-8.442-6.1178-1.0025-.211-1.9522-.3164-2.8492-.3164-5.0652 0-9.1807 2.637-12.3992 7.911-2.7436 4.4828-4.1154 9.4404-4.1154 14.8726 0 4.061.8442 7.5417 2.5326 10.4424 1.8994 3.3226 4.6958 5.3267 8.442 6.1178 1.0024.211 1.9522.3165 2.8491.3165 5.118 0 9.2334-2.637 12.3992-7.911 2.7436-4.5356 4.1155-9.4931 4.1155-14.9253 0-4.1137-.8442-7.5418-2.5326-10.3898zm-6.6481 14.609c-.7387 3.4808-2.0577 6.065-4.01 7.8054-1.53 1.3713-2.9546 1.9514-4.2737 1.6877-1.2663-.2637-2.3215-1.3712-3.113-3.428-.6331-1.635-.9497-3.27-.9497-4.7994 0-1.3185.1055-2.637.3693-3.85.4749-2.1623 1.3719-4.272 2.7964-6.276 1.7412-2.5843 3.5879-3.639 5.4873-3.2699 1.2663.2637 2.3216 1.3712 3.113 3.428.6332 1.635.9497 3.27.9497 4.7994 0 1.3712-.1582 2.6897-.3693 3.9027zM110.3218 53.3027c-1.8994-3.3226-4.7486-5.3267-8.442-6.1178-1.0025-.211-1.9522-.3164-2.8491-.3164-5.0652 0-9.1807 2.637-12.3992 7.911-2.7437 4.4828-4.1155 9.4404-4.1155 14.8726 0 4.061.8442 7.5417 2.5326 10.4424 1.8995 3.3226 4.6959 5.3267 8.442 6.1178 1.0025.211 1.9522.3165 2.8492.3165 5.118 0 9.2334-2.637 12.3992-7.911 2.7436-4.5356 4.1154-9.4931 4.1154-14.9253 0-4.1137-.8442-7.5418-2.5326-10.3898zm-6.648 14.609c-.7387 3.4808-2.0578 6.065-4.01 7.8054-1.5301 1.3713-2.9547 1.9514-4.2737 1.6877-1.2663-.2637-2.3216-1.3712-3.113-3.428-.6332-1.635-.9498-3.27-.9498-4.7994 0-1.3185.1056-2.637.3694-3.85.4748-2.1623 1.3718-4.272 2.7964-6.276 1.7412-2.5843 3.5878-3.639 5.4873-3.2699 1.2663.2637 2.3215 1.3712 3.113 3.428.6331 1.635.9497 3.27.9497 4.7994 0 1.3712-.1055 2.6897-.3693 3.9027z" fill="#FFF"/>
  </g>
</svg>
