<?xml version="1.0" encoding="UTF-8" standalone="no"?>
<svg width="14px" height="13px" viewBox="0 0 14 13" version="1.1" xmlns="http://www.w3.org/2000/svg" xmlns:xlink="http://www.w3.org/1999/xlink" xmlns:sketch="http://www.bohemiancoding.com/sketch/ns">
    <!-- Generator: Sketch 3.4.2 (15857) - http://www.bohemiancoding.com/sketch -->
    <title>dropbox-logos_dropbox-glyph-blue</title>
    <desc>Created with Sketch.</desc>
    <defs></defs>
    <g id="Page-1" stroke="none" stroke-width="1" fill="none" fill-rule="evenodd" sketch:type="MSPage">
        <g id="dropbox-logos_dropbox-glyph-blue" sketch:type="MSLayerGroup" fill="#007EE5">
            <path d="M4.16353396,0.0631981132 L0.11000566,2.70985849 L2.91277925,4.95434906 L6.99998679,2.43065094 L4.16353396,0.0631981132 Z" id="Fill-1" sketch:type="MSShapeGroup"></path>
            <path d="M0.10995283,7.19901132 L4.16348113,9.8456717 L6.99993396,7.47808679 L2.91285849,4.95438868 L0.10995283,7.19901132 Z" id="Fill-2" sketch:type="MSShapeGroup"></path>
            <path d="M6.99993396,7.47812642 L9.83651887,9.84571132 L13.8900472,7.19905094 L11.0871415,4.9544283 L6.99993396,7.47812642 Z" id="Fill-3" sketch:type="MSShapeGroup"></path>
            <path d="M13.8900472,2.7098717 L9.83651887,0.0632113208 L6.99993396,2.43066415 L11.0871415,4.95436226 L13.8900472,2.7098717 Z" id="Fill-4" sketch:type="MSShapeGroup"></path>
            <path d="M7.00832075,7.98747547 L4.16354717,10.3480604 L2.94620755,9.55323019 L2.94620755,10.4443434 L7.00832075,12.8802113 L11.070434,10.4443434 L11.070434,9.55323019 L9.85309434,10.3480604 L7.00832075,7.98747547 Z" id="Fill-5" sketch:type="MSShapeGroup"></path>
        </g>
    </g>
</svg>